<svg id="Layer_1" data-name="Layer 1" xmlns="http://www.w3.org/2000/svg" xmlns:xlink="http://www.w3.org/1999/xlink" viewBox="0 0 223.72 182.99"><defs><style>.cls-1{fill:none;}.cls-2{fill:#000104;}.cls-3{clip-path:url(#clip-path);}</style><clipPath id="clip-path" transform="translate(-536 -556.01)"><rect class="cls-1" x="536" y="556.01" width="223.72" height="182.99"/></clipPath></defs><title>DENIM-HEX</title><path class="cls-2" d="M552.54,683.14V611.89l95.31-38.08,95.32,38.08v71.24l-95.32,38.08ZM647.85,556,536,600.51v93.81L647.85,739l111.86-44.68V600.51Z" transform="translate(-536 -556.01)"/><g class="cls-3"><path class="cls-2" d="M592.31,654.77h2.41c5.55.06,6.36-3.79,6.36-7.26s-.81-7.33-6.36-7.26h-2.41Zm-4.66-18.13H595c6.78-.06,11,3.31,11,10.88s-4.22,10.92-11,10.87h-7.4Z" transform="translate(-536 -556.01)"/></g><polygon class="cls-2" points="79.18 80.62 93.76 80.62 93.76 84.23 83.85 84.23 83.85 89.32 93.14 89.32 93.14 92.93 83.85 92.93 83.85 98.76 94.09 98.76 94.09 102.37 79.18 102.37 79.18 80.62"/><polygon class="cls-2" points="116.85 102.37 108.27 84.3 108.21 84.35 108.21 102.37 103.84 102.37 103.84 80.62 110.77 80.62 119.06 97.72 119.11 97.67 119.11 80.62 123.48 80.62 123.48 102.37 116.85 102.37"/><rect class="cls-2" x="133.17" y="80.62" width="4.67" height="21.74"/><polygon class="cls-2" points="161.57 102.37 157.68 102.37 151.93 83.69 151.86 83.75 151.86 102.37 147.5 102.37 147.5 80.62 155.15 80.62 159.69 96.43 159.76 96.43 164.7 80.62 172.07 80.62 172.07 102.37 167.72 102.37 167.72 83.75 167.65 83.69 161.57 102.37"/></svg>